<?xml version="1.0" standalone="no"?>
<!DOCTYPE svg PUBLIC "-//W3C//DTD SVG 20010904//EN"
 "http://www.w3.org/TR/2001/REC-SVG-20010904/DTD/svg10.dtd">
<svg version="1.0" xmlns="http://www.w3.org/2000/svg"
 width="888.000000pt" height="888.000000pt" viewBox="0 0 888.000000 888.000000"
 preserveAspectRatio="xMidYMid meet">
<metadata>
Created by potrace 1.14, written by Peter Selinger 2001-2017
</metadata>
<g transform="translate(0.000000,888.000000) scale(0.100000,-0.100000)"
fill="#000000" stroke="none">
<path d="M4387 7623 c-1 -1 -25 -4 -52 -8 -131 -15 -216 -39 -328 -95 -99 -49
-122 -62 -150 -86 -12 -11 -34 -27 -48 -36 -34 -22 -116 -103 -154 -152 -16
-21 -36 -45 -44 -53 -19 -20 -111 -200 -111 -218 0 -8 -5 -15 -12 -15 -6 0 -9
-3 -5 -6 3 -3 1 -18 -5 -33 -33 -86 -51 -204 -49 -331 3 -218 67 -411 195
-585 64 -89 67 -92 89 -116 9 -10 17 -21 17 -24 0 -3 9 -16 20 -28 39 -41 117
-162 139 -217 18 -41 24 -74 24 -132 0 -67 -4 -82 -28 -120 -54 -86 -167 -127
-279 -103 -36 7 -125 44 -146 60 -8 6 -27 17 -42 25 -16 7 -28 17 -28 22 0 4
-6 8 -14 8 -8 0 -21 6 -28 13 -18 16 -166 117 -173 117 -3 0 -27 15 -53 33
-26 18 -54 36 -62 40 -8 4 -28 15 -45 26 -156 96 -358 188 -473 216 -182 45
-185 46 -252 51 -173 15 -350 0 -455 -38 -47 -17 -149 -62 -155 -68 -3 -3 -17
-11 -33 -19 -56 -29 -164 -134 -221 -215 -78 -110 -162 -290 -180 -389 -2 -12
-11 -49 -19 -82 -17 -64 -25 -121 -36 -250 -8 -89 -6 -423 2 -470 6 -30 15
-100 22 -165 2 -19 9 -57 15 -85 6 -27 13 -63 16 -80 3 -16 19 -82 35 -145 17
-63 32 -122 34 -131 9 -44 68 -207 95 -265 30 -62 52 -113 55 -124 4 -17 61
-126 68 -128 4 -2 7 -8 7 -14 0 -14 42 -47 61 -48 17 0 47 56 40 75 -1 6 -4
24 -6 40 -4 33 -7 55 -35 225 -10 63 -21 133 -24 155 -3 22 -8 65 -12 95 -37
298 -37 796 0 1017 4 24 8 46 8 50 2 18 58 171 76 208 44 88 145 178 214 191
52 9 119 11 124 2 3 -5 10 -6 15 -2 12 7 87 -31 116 -61 41 -41 66 -113 65
-190 0 -65 -8 -130 -16 -144 -2 -3 -7 -30 -10 -58 -3 -29 -9 -77 -12 -105 -26
-222 -25 -468 1 -663 3 -16 7 -57 10 -90 3 -33 7 -71 10 -85 12 -57 16 -77 20
-110 5 -30 10 -54 21 -95 1 -5 5 -28 9 -50 4 -22 11 -58 16 -80 6 -22 15 -60
21 -85 17 -75 98 -358 118 -413 10 -29 21 -67 25 -85 4 -17 11 -32 16 -32 5 0
9 -7 9 -15 0 -16 25 -60 47 -83 16 -17 51 -10 68 15 11 16 14 45 11 124 -2 57
-6 111 -9 119 -3 8 -8 44 -11 80 -3 36 -8 81 -10 100 -10 82 -18 191 -22 275
-5 117 -5 601 0 640 2 17 7 57 11 90 4 33 9 71 10 85 7 50 18 155 18 170 0 8
3 20 7 25 4 6 10 26 14 46 18 100 87 218 157 269 55 39 109 53 185 47 124 -9
210 -76 247 -192 31 -101 35 -156 21 -335 -15 -192 -6 -922 12 -951 2 -5 7
-34 10 -66 2 -32 7 -69 9 -83 3 -14 8 -41 11 -60 3 -19 19 -91 36 -160 17 -68
31 -129 32 -135 1 -5 4 -15 8 -20 3 -6 9 -27 13 -48 4 -20 11 -40 16 -43 5 -3
7 -9 4 -14 -3 -5 -1 -11 5 -15 5 -3 10 -13 10 -21 0 -20 55 -139 81 -175 25
-35 53 -37 73 -6 17 25 14 115 -12 382 -4 39 -7 203 -7 365 0 314 6 432 29
605 7 50 19 166 19 183 0 6 4 12 8 12 4 0 6 6 6 13 -2 22 15 97 22 97 4 0 7 9
8 21 2 27 42 93 88 146 101 118 289 115 405 -6 27 -28 51 -60 55 -71 3 -11 11
-20 16 -20 5 0 9 -9 9 -19 0 -11 4 -22 9 -25 16 -10 57 -172 72 -290 5 -44 12
-83 15 -88 3 -4 0 -8 -7 -8 -8 0 -8 -4 -1 -12 5 -7 13 -58 16 -113 3 -55 8
-125 11 -155 2 -30 7 -100 10 -155 7 -118 16 -266 30 -475 3 -36 7 -108 10
-160 14 -282 16 -332 20 -405 3 -44 7 -109 10 -145 3 -36 8 -123 10 -195 9
-245 14 -350 21 -415 8 -90 12 -145 19 -300 16 -333 18 -347 51 -362 20 -10
28 -8 47 11 13 12 24 27 24 34 3 56 21 331 28 422 3 33 7 105 10 160 3 55 5
100 6 100 0 0 2 29 4 65 1 36 6 133 9 215 4 83 9 197 11 255 2 58 6 157 10
220 6 108 8 141 20 295 3 33 8 110 10 170 8 170 15 289 29 510 14 227 19 302
19 323 1 12 4 22 7 22 3 0 6 12 6 28 1 63 20 242 30 274 3 9 7 27 9 39 7 38
48 154 55 159 4 3 10 14 14 25 8 26 72 97 116 130 43 32 95 46 170 46 60 1
150 -30 150 -50 0 -6 6 -11 13 -11 14 -1 70 -72 88 -115 8 -16 16 -32 19 -35
8 -7 30 -105 45 -200 3 -25 9 -58 12 -75 3 -16 5 -42 5 -57 -1 -16 2 -28 6
-28 4 0 7 -21 8 -48 1 -26 5 -96 10 -157 17 -213 10 -707 -13 -910 -15 -138
-15 -195 1 -219 15 -24 39 -28 66 -11 12 7 74 137 85 180 10 38 9 34 24 70 7
17 14 37 16 46 2 9 13 47 24 85 18 61 49 191 56 234 1 8 5 38 9 65 9 57 13 81
19 110 5 21 16 117 23 194 2 25 6 119 9 209 2 89 7 167 10 172 3 6 2 10 -4 10
-7 0 -7 8 -1 25 5 14 6 25 1 25 -8 0 -8 21 -1 40 1 3 1 10 0 15 -1 6 -4 42 -5
80 -2 39 -7 129 -10 200 -12 213 -12 237 0 300 12 64 52 156 83 192 24 27 107
70 152 78 54 10 109 12 112 4 2 -4 17 -9 35 -12 32 -5 87 -38 111 -67 40 -48
82 -122 98 -170 9 -30 21 -64 25 -75 5 -11 11 -40 14 -65 2 -25 7 -56 9 -70 2
-14 7 -56 11 -95 3 -38 8 -88 10 -110 15 -125 20 -471 10 -675 -6 -129 -15
-253 -20 -270 -2 -8 -7 -42 -10 -75 -3 -33 -8 -73 -10 -90 -7 -52 -8 -292 -2
-303 4 -5 16 -12 28 -15 31 -8 71 36 98 108 12 33 26 69 31 80 13 29 88 285
116 395 15 60 21 86 29 128 3 15 14 65 24 112 22 101 40 202 45 250 6 55 16
132 22 161 5 28 16 200 15 237 -1 37 -1 53 -1 167 0 126 -5 207 -19 279 -5 28
-13 74 -16 101 -3 28 -8 63 -11 80 -28 167 13 283 119 334 35 17 132 30 157
21 3 -1 17 -3 31 -5 66 -9 142 -69 203 -162 37 -55 103 -266 110 -348 16 -198
28 -631 18 -650 -3 -5 -7 -32 -8 -60 -2 -53 -11 -177 -20 -260 -5 -54 -9 -79
-24 -165 -6 -30 -13 -74 -16 -98 -7 -49 -12 -77 -14 -77 -11 0 -19 -197 -8
-217 23 -45 75 -3 128 101 16 34 30 64 31 68 0 5 6 17 13 28 31 47 118 280
108 289 -3 3 -1 6 5 6 6 0 13 12 16 28 7 39 14 62 31 110 8 23 15 43 15 45 -1
1 4 20 10 42 9 37 34 170 47 255 20 130 24 161 30 215 12 117 6 457 -10 551
-3 16 -10 61 -16 99 -6 39 -16 88 -22 110 -6 22 -13 46 -14 54 -11 59 -93 237
-150 327 -37 60 -173 204 -191 204 -7 0 -13 4 -13 8 0 4 -15 16 -32 27 -18 10
-35 21 -38 25 -16 20 -166 74 -250 90 -399 77 -770 -31 -1284 -374 -240 -160
-308 -198 -385 -216 -163 -38 -308 51 -316 195 -2 30 1 74 6 97 12 54 42 128
52 128 4 0 7 6 7 13 0 6 11 25 25 41 14 16 25 32 25 35 0 3 10 17 23 31 12 14
36 43 52 65 16 22 46 60 67 83 20 24 49 65 64 90 15 26 31 50 36 53 6 3 9 9 9
13 -1 3 14 39 33 80 59 127 89 276 86 421 -3 133 -4 145 -13 145 -5 0 -6 4 -2
9 11 18 -32 163 -80 267 -14 30 -25 59 -25 64 0 6 -4 10 -9 10 -5 0 -12 9 -16
20 -13 40 -116 164 -196 235 -88 78 -205 153 -283 181 -115 41 -153 52 -215
60 -19 2 -40 9 -48 15 -9 8 -17 8 -26 0 -8 -6 -17 -8 -20 -5 -5 6 -135 12
-140 7z"/>
</g>
</svg>
